<mxfile host="app.diagrams.net" modified="2023-08-30T17:58:12.324Z" agent="Mozilla/5.0 (Windows NT 10.0; Win64; x64) AppleWebKit/537.36 (KHTML, like Gecko) Chrome/116.0.0.0 Safari/537.36 Edg/116.0.1938.54" etag="k7Bp8N7h-7W6BmQgMm8J" version="21.7.1" type="device">
  <diagram name="Page-1" id="qvb2xpCweHjme-ax0Mq5">
    <mxGraphModel dx="1426" dy="833" grid="1" gridSize="10" guides="1" tooltips="1" connect="1" arrows="1" fold="1" page="1" pageScale="1" pageWidth="850" pageHeight="1100" math="0" shadow="0">
      <root>
        <mxCell id="0" />
        <mxCell id="1" parent="0" />
        <mxCell id="GA5LLxyxJ0636jVMI8oB-10" style="rounded=0;orthogonalLoop=1;jettySize=auto;html=1;exitX=1;exitY=0.5;exitDx=0;exitDy=0;entryX=0;entryY=0.5;entryDx=0;entryDy=0;" edge="1" parent="1" source="GA5LLxyxJ0636jVMI8oB-1" target="GA5LLxyxJ0636jVMI8oB-4">
          <mxGeometry relative="1" as="geometry" />
        </mxCell>
        <mxCell id="GA5LLxyxJ0636jVMI8oB-11" style="rounded=0;orthogonalLoop=1;jettySize=auto;html=1;exitX=1;exitY=0.5;exitDx=0;exitDy=0;entryX=0;entryY=0.5;entryDx=0;entryDy=0;" edge="1" parent="1" source="GA5LLxyxJ0636jVMI8oB-1" target="GA5LLxyxJ0636jVMI8oB-5">
          <mxGeometry relative="1" as="geometry" />
        </mxCell>
        <mxCell id="GA5LLxyxJ0636jVMI8oB-12" style="rounded=0;orthogonalLoop=1;jettySize=auto;html=1;exitX=1;exitY=0.5;exitDx=0;exitDy=0;entryX=0;entryY=0.5;entryDx=0;entryDy=0;" edge="1" parent="1" source="GA5LLxyxJ0636jVMI8oB-1" target="GA5LLxyxJ0636jVMI8oB-6">
          <mxGeometry relative="1" as="geometry" />
        </mxCell>
        <mxCell id="GA5LLxyxJ0636jVMI8oB-1" value="" style="ellipse;whiteSpace=wrap;html=1;aspect=fixed;fillColor=#f8cecc;strokeColor=#b85450;" vertex="1" parent="1">
          <mxGeometry x="160" y="160" width="40" height="40" as="geometry" />
        </mxCell>
        <mxCell id="GA5LLxyxJ0636jVMI8oB-13" style="rounded=0;orthogonalLoop=1;jettySize=auto;html=1;exitX=1;exitY=0.5;exitDx=0;exitDy=0;entryX=0;entryY=0.5;entryDx=0;entryDy=0;" edge="1" parent="1" source="GA5LLxyxJ0636jVMI8oB-2" target="GA5LLxyxJ0636jVMI8oB-4">
          <mxGeometry relative="1" as="geometry" />
        </mxCell>
        <mxCell id="GA5LLxyxJ0636jVMI8oB-14" style="edgeStyle=orthogonalEdgeStyle;rounded=0;orthogonalLoop=1;jettySize=auto;html=1;exitX=1;exitY=0.5;exitDx=0;exitDy=0;entryX=0;entryY=0.5;entryDx=0;entryDy=0;" edge="1" parent="1" source="GA5LLxyxJ0636jVMI8oB-2" target="GA5LLxyxJ0636jVMI8oB-5">
          <mxGeometry relative="1" as="geometry" />
        </mxCell>
        <mxCell id="GA5LLxyxJ0636jVMI8oB-15" style="rounded=0;orthogonalLoop=1;jettySize=auto;html=1;exitX=1;exitY=0.5;exitDx=0;exitDy=0;entryX=0;entryY=0.5;entryDx=0;entryDy=0;" edge="1" parent="1" source="GA5LLxyxJ0636jVMI8oB-2" target="GA5LLxyxJ0636jVMI8oB-6">
          <mxGeometry relative="1" as="geometry" />
        </mxCell>
        <mxCell id="GA5LLxyxJ0636jVMI8oB-2" value="" style="ellipse;whiteSpace=wrap;html=1;aspect=fixed;fillColor=#f8cecc;strokeColor=#b85450;" vertex="1" parent="1">
          <mxGeometry x="160" y="240" width="40" height="40" as="geometry" />
        </mxCell>
        <mxCell id="GA5LLxyxJ0636jVMI8oB-16" style="rounded=0;orthogonalLoop=1;jettySize=auto;html=1;exitX=1;exitY=0.5;exitDx=0;exitDy=0;entryX=0;entryY=0.5;entryDx=0;entryDy=0;" edge="1" parent="1" source="GA5LLxyxJ0636jVMI8oB-3" target="GA5LLxyxJ0636jVMI8oB-4">
          <mxGeometry relative="1" as="geometry" />
        </mxCell>
        <mxCell id="GA5LLxyxJ0636jVMI8oB-17" style="rounded=0;orthogonalLoop=1;jettySize=auto;html=1;exitX=1;exitY=0.5;exitDx=0;exitDy=0;entryX=0;entryY=0.5;entryDx=0;entryDy=0;" edge="1" parent="1" source="GA5LLxyxJ0636jVMI8oB-3" target="GA5LLxyxJ0636jVMI8oB-5">
          <mxGeometry relative="1" as="geometry" />
        </mxCell>
        <mxCell id="GA5LLxyxJ0636jVMI8oB-18" style="rounded=0;orthogonalLoop=1;jettySize=auto;html=1;exitX=1;exitY=0.5;exitDx=0;exitDy=0;entryX=0;entryY=0.5;entryDx=0;entryDy=0;" edge="1" parent="1" source="GA5LLxyxJ0636jVMI8oB-3" target="GA5LLxyxJ0636jVMI8oB-6">
          <mxGeometry relative="1" as="geometry" />
        </mxCell>
        <mxCell id="GA5LLxyxJ0636jVMI8oB-3" value="" style="ellipse;whiteSpace=wrap;html=1;aspect=fixed;fillColor=#f8cecc;strokeColor=#b85450;" vertex="1" parent="1">
          <mxGeometry x="160" y="320" width="40" height="40" as="geometry" />
        </mxCell>
        <mxCell id="GA5LLxyxJ0636jVMI8oB-19" style="rounded=0;orthogonalLoop=1;jettySize=auto;html=1;exitX=1;exitY=0.5;exitDx=0;exitDy=0;entryX=0;entryY=0.5;entryDx=0;entryDy=0;" edge="1" parent="1" source="GA5LLxyxJ0636jVMI8oB-4" target="GA5LLxyxJ0636jVMI8oB-7">
          <mxGeometry relative="1" as="geometry" />
        </mxCell>
        <mxCell id="GA5LLxyxJ0636jVMI8oB-20" style="rounded=0;orthogonalLoop=1;jettySize=auto;html=1;exitX=1;exitY=0.5;exitDx=0;exitDy=0;entryX=0;entryY=0.5;entryDx=0;entryDy=0;" edge="1" parent="1" source="GA5LLxyxJ0636jVMI8oB-4" target="GA5LLxyxJ0636jVMI8oB-8">
          <mxGeometry relative="1" as="geometry" />
        </mxCell>
        <mxCell id="GA5LLxyxJ0636jVMI8oB-4" value="" style="ellipse;whiteSpace=wrap;html=1;aspect=fixed;fillColor=#dae8fc;strokeColor=#6c8ebf;" vertex="1" parent="1">
          <mxGeometry x="240" y="160" width="40" height="40" as="geometry" />
        </mxCell>
        <mxCell id="GA5LLxyxJ0636jVMI8oB-21" style="rounded=0;orthogonalLoop=1;jettySize=auto;html=1;exitX=1;exitY=0.5;exitDx=0;exitDy=0;entryX=0;entryY=0.5;entryDx=0;entryDy=0;" edge="1" parent="1" source="GA5LLxyxJ0636jVMI8oB-5" target="GA5LLxyxJ0636jVMI8oB-7">
          <mxGeometry relative="1" as="geometry" />
        </mxCell>
        <mxCell id="GA5LLxyxJ0636jVMI8oB-22" style="rounded=0;orthogonalLoop=1;jettySize=auto;html=1;exitX=1;exitY=0.5;exitDx=0;exitDy=0;entryX=0;entryY=0.5;entryDx=0;entryDy=0;" edge="1" parent="1" source="GA5LLxyxJ0636jVMI8oB-5" target="GA5LLxyxJ0636jVMI8oB-8">
          <mxGeometry relative="1" as="geometry" />
        </mxCell>
        <mxCell id="GA5LLxyxJ0636jVMI8oB-5" value="" style="ellipse;whiteSpace=wrap;html=1;aspect=fixed;fillColor=#dae8fc;strokeColor=#6c8ebf;" vertex="1" parent="1">
          <mxGeometry x="240" y="240" width="40" height="40" as="geometry" />
        </mxCell>
        <mxCell id="GA5LLxyxJ0636jVMI8oB-23" style="rounded=0;orthogonalLoop=1;jettySize=auto;html=1;exitX=1;exitY=0.5;exitDx=0;exitDy=0;entryX=0;entryY=0.5;entryDx=0;entryDy=0;" edge="1" parent="1" source="GA5LLxyxJ0636jVMI8oB-6" target="GA5LLxyxJ0636jVMI8oB-7">
          <mxGeometry relative="1" as="geometry" />
        </mxCell>
        <mxCell id="GA5LLxyxJ0636jVMI8oB-24" style="rounded=0;orthogonalLoop=1;jettySize=auto;html=1;exitX=1;exitY=0.5;exitDx=0;exitDy=0;entryX=0;entryY=0.5;entryDx=0;entryDy=0;" edge="1" parent="1" source="GA5LLxyxJ0636jVMI8oB-6" target="GA5LLxyxJ0636jVMI8oB-8">
          <mxGeometry relative="1" as="geometry" />
        </mxCell>
        <mxCell id="GA5LLxyxJ0636jVMI8oB-6" value="" style="ellipse;whiteSpace=wrap;html=1;aspect=fixed;fillColor=#dae8fc;strokeColor=#6c8ebf;" vertex="1" parent="1">
          <mxGeometry x="240" y="320" width="40" height="40" as="geometry" />
        </mxCell>
        <mxCell id="GA5LLxyxJ0636jVMI8oB-26" style="rounded=0;orthogonalLoop=1;jettySize=auto;html=1;exitX=1;exitY=0.5;exitDx=0;exitDy=0;entryX=0;entryY=0.5;entryDx=0;entryDy=0;" edge="1" parent="1" source="GA5LLxyxJ0636jVMI8oB-7" target="GA5LLxyxJ0636jVMI8oB-9">
          <mxGeometry relative="1" as="geometry" />
        </mxCell>
        <mxCell id="GA5LLxyxJ0636jVMI8oB-7" value="" style="ellipse;whiteSpace=wrap;html=1;aspect=fixed;fillColor=#dae8fc;strokeColor=#6c8ebf;" vertex="1" parent="1">
          <mxGeometry x="320" y="200" width="40" height="40" as="geometry" />
        </mxCell>
        <mxCell id="GA5LLxyxJ0636jVMI8oB-27" style="rounded=0;orthogonalLoop=1;jettySize=auto;html=1;exitX=1;exitY=0.5;exitDx=0;exitDy=0;entryX=0;entryY=0.5;entryDx=0;entryDy=0;" edge="1" parent="1" source="GA5LLxyxJ0636jVMI8oB-8" target="GA5LLxyxJ0636jVMI8oB-9">
          <mxGeometry relative="1" as="geometry" />
        </mxCell>
        <mxCell id="GA5LLxyxJ0636jVMI8oB-8" value="" style="ellipse;whiteSpace=wrap;html=1;aspect=fixed;fillColor=#dae8fc;strokeColor=#6c8ebf;" vertex="1" parent="1">
          <mxGeometry x="320" y="280" width="40" height="40" as="geometry" />
        </mxCell>
        <mxCell id="GA5LLxyxJ0636jVMI8oB-9" value="" style="ellipse;whiteSpace=wrap;html=1;aspect=fixed;fillColor=#d5e8d4;strokeColor=#82b366;" vertex="1" parent="1">
          <mxGeometry x="400" y="240" width="40" height="40" as="geometry" />
        </mxCell>
      </root>
    </mxGraphModel>
  </diagram>
</mxfile>
